<mxfile host="app.diagrams.net" modified="2024-04-23T06:55:19.303Z" agent="Mozilla/5.0 (Windows NT 10.0; Win64; x64) AppleWebKit/537.36 (KHTML, like Gecko) Chrome/124.0.0.0 Safari/537.36" version="24.2.7" etag="p1IcyUnrmeV8Mz_zHjje" type="github">
  <diagram name="Page-1" id="zSt4ZXYl93ysZ_YehF4r">
    <mxGraphModel>
      <root>
        <mxCell id="0" />
        <mxCell id="1" parent="0" />
      </root>
    </mxGraphModel>
  </diagram>
</mxfile>
